<mxfile host="Electron" agent="Mozilla/5.0 (Windows NT 10.0; Win64; x64) AppleWebKit/537.36 (KHTML, like Gecko) draw.io/24.7.17 Chrome/128.0.6613.36 Electron/32.0.1 Safari/537.36" version="24.7.17">
  <diagram name="Σελίδα-1" id="kx84PUummJh-ONIuabE0">
    <mxGraphModel dx="1834" dy="844" grid="1" gridSize="10" guides="1" tooltips="1" connect="1" arrows="1" fold="1" page="0" pageScale="1" pageWidth="827" pageHeight="1169" math="0" shadow="0">
      <root>
        <mxCell id="0" />
        <mxCell id="1" parent="0" />
        <mxCell id="M14kqL5w_x4W9ffPL54g-1" value="&lt;font style=&quot;font-size: 20px;&quot;&gt;&lt;b&gt;DataWarehouse&lt;/b&gt;&lt;/font&gt;" style="rounded=0;whiteSpace=wrap;html=1;fillColor=#ffcd28;strokeColor=#d79b00;gradientColor=#ffa500;" parent="1" vertex="1">
          <mxGeometry x="-160" y="240" width="170" height="30" as="geometry" />
        </mxCell>
        <mxCell id="M14kqL5w_x4W9ffPL54g-2" value="" style="rounded=0;whiteSpace=wrap;html=1;fillColor=none;strokeColor=#d79b00;gradientColor=#ffa500;" parent="1" vertex="1">
          <mxGeometry x="-160" y="280" width="170" height="490" as="geometry" />
        </mxCell>
        <mxCell id="M14kqL5w_x4W9ffPL54g-3" value="" style="html=1;verticalLabelPosition=bottom;align=center;labelBackgroundColor=#ffffff;verticalAlign=top;strokeWidth=2;strokeColor=#d79b00;shadow=0;dashed=0;shape=mxgraph.ios7.icons.data;fillColor=#ffcd28;gradientColor=#ffa500;" parent="1" vertex="1">
          <mxGeometry x="-99.25" y="306" width="48.5" height="70" as="geometry" />
        </mxCell>
        <mxCell id="M14kqL5w_x4W9ffPL54g-4" value="&lt;font style=&quot;font-size: 14px;&quot;&gt;&lt;b&gt;BI Ready Data&lt;/b&gt;&lt;/font&gt;" style="text;html=1;align=center;verticalAlign=middle;whiteSpace=wrap;rounded=0;" parent="1" vertex="1">
          <mxGeometry x="-140" y="400.5" width="130" height="30" as="geometry" />
        </mxCell>
        <mxCell id="M14kqL5w_x4W9ffPL54g-5" value="" style="endArrow=none;html=1;rounded=0;fillColor=#fff2cc;gradientColor=#ffd966;strokeColor=#d6b656;" parent="1" edge="1">
          <mxGeometry width="50" height="50" relative="1" as="geometry">
            <mxPoint x="-145" y="440" as="sourcePoint" />
            <mxPoint x="-5" y="440" as="targetPoint" />
            <Array as="points">
              <mxPoint x="-70" y="440" />
              <mxPoint x="-5" y="440" />
            </Array>
          </mxGeometry>
        </mxCell>
        <mxCell id="M14kqL5w_x4W9ffPL54g-11" value="-gold.dim_clients" style="text;html=1;align=center;verticalAlign=middle;whiteSpace=wrap;rounded=0;" parent="1" vertex="1">
          <mxGeometry x="-140" y="470" width="119" height="40" as="geometry" />
        </mxCell>
        <mxCell id="M14kqL5w_x4W9ffPL54g-13" value="-gold.dim_products" style="text;html=1;align=center;verticalAlign=middle;whiteSpace=wrap;rounded=0;" parent="1" vertex="1">
          <mxGeometry x="-140" y="505" width="119" height="40" as="geometry" />
        </mxCell>
        <mxCell id="M14kqL5w_x4W9ffPL54g-14" value="-gold.dim_employees" style="text;html=1;align=center;verticalAlign=middle;whiteSpace=wrap;rounded=0;" parent="1" vertex="1">
          <mxGeometry x="-134.5" y="540" width="119" height="40" as="geometry" />
        </mxCell>
        <mxCell id="M14kqL5w_x4W9ffPL54g-15" value="-gold.fact_transactiosn" style="text;html=1;align=center;verticalAlign=middle;whiteSpace=wrap;rounded=0;" parent="1" vertex="1">
          <mxGeometry x="-150" y="600" width="150" height="40" as="geometry" />
        </mxCell>
        <mxCell id="M14kqL5w_x4W9ffPL54g-16" value="-gold.fact_employee_client" style="text;html=1;align=center;verticalAlign=middle;whiteSpace=wrap;rounded=0;" parent="1" vertex="1">
          <mxGeometry x="-159" y="640" width="169" height="40" as="geometry" />
        </mxCell>
        <mxCell id="M14kqL5w_x4W9ffPL54g-17" value="-gold.fact_employee_cproduct" style="text;html=1;align=center;verticalAlign=middle;whiteSpace=wrap;rounded=0;" parent="1" vertex="1">
          <mxGeometry x="-184" y="670" width="219" height="40" as="geometry" />
        </mxCell>
        <mxCell id="M14kqL5w_x4W9ffPL54g-18" value="" style="html=1;shadow=0;dashed=0;align=center;verticalAlign=middle;shape=mxgraph.arrows2.arrow;dy=0.6;dx=40;notch=0;fillColor=#f8cecc;gradientColor=#EA6B66;strokeColor=#b85450;" parent="1" vertex="1">
          <mxGeometry x="20" y="520" width="100" height="50" as="geometry" />
        </mxCell>
        <mxCell id="V0dumkVramKhldQUX2lv-5" value="" style="shape=cross;whiteSpace=wrap;html=1;gradientColor=#EA6B66;" vertex="1" parent="1">
          <mxGeometry x="370" y="490" width="80" height="80" as="geometry" />
        </mxCell>
        <mxCell id="V0dumkVramKhldQUX2lv-19" value="" style="shadow=0;dashed=0;html=1;strokeColor=none;fillColor=#4495D1;labelPosition=center;verticalLabelPosition=bottom;verticalAlign=top;align=center;outlineConnect=0;shape=mxgraph.veeam.2d.report;" vertex="1" parent="1">
          <mxGeometry x="180" y="477.5" width="110" height="135" as="geometry" />
        </mxCell>
        <mxCell id="V0dumkVramKhldQUX2lv-22" value="&lt;span style=&quot;font-size: 18px; font-weight: 700;&quot;&gt;ADVANCED REPORT&lt;/span&gt;" style="text;html=1;align=center;verticalAlign=middle;whiteSpace=wrap;rounded=0;" vertex="1" parent="1">
          <mxGeometry x="467.5" y="417.5" width="235" height="60" as="geometry" />
        </mxCell>
        <mxCell id="V0dumkVramKhldQUX2lv-23" value="&lt;span style=&quot;font-size: 18px; font-weight: 700;&quot;&gt;BASIC REPORT (EDA)&lt;/span&gt;" style="text;html=1;align=center;verticalAlign=middle;whiteSpace=wrap;rounded=0;" vertex="1" parent="1">
          <mxGeometry x="140" y="430.5" width="210" height="30" as="geometry" />
        </mxCell>
        <mxCell id="V0dumkVramKhldQUX2lv-25" value="" style="shadow=0;dashed=0;html=1;strokeColor=none;fillColor=#4495D1;labelPosition=center;verticalLabelPosition=bottom;verticalAlign=top;align=center;outlineConnect=0;shape=mxgraph.veeam.2d.report;" vertex="1" parent="1">
          <mxGeometry x="530" y="477.5" width="110" height="135" as="geometry" />
        </mxCell>
      </root>
    </mxGraphModel>
  </diagram>
</mxfile>
